<svg version="1.0" xmlns="http://www.w3.org/2000/svg" width="4500.000000pt" height="4500.000000pt" viewBox="0 0 4500.000000 4500.000000" preserveAspectRatio="xMidYMid meet">

<g transform="translate(0.000000,4500.000000) scale(0.100000,-0.100000)" fill="#000000" stroke="none">
<path d="M44753 35952 c-980 -1083 -2036 -2153 -2998 -3036 -138 -126 -265
-243 -283 -260 l-33 -31 16 44 c21 59 19 147 -4 196 -82 175 -376 234 -601
120 -130 -66 -242 -186 -280 -302 -11 -32 -37 -157 -59 -278 -121 -664 -128
-698 -154 -720 -814 -671 -1408 -1128 -2102 -1616 -283 -199 -596 -412 -599
-407 -2 1 -122 403 -267 891 -145 488 -266 893 -270 899 -4 6 -19 7 -39 3 -28
-6 -31 -10 -27 -34 5 -25 523 -1768 533 -1795 10 -27 -44 -47 -134 -51 -166
-7 -315 -76 -447 -209 -54 -55 -92 -104 -116 -151 -36 -70 -36 -70 -165 -149
-482 -296 -1138 -658 -1674 -925 -254 -127 -772 -372 -776 -368 -1 1 -5 74 -8
162 -4 88 -9 189 -11 225 -2 36 -7 135 -10 220 -3 85 -8 178 -10 205 -2 28 -7
127 -10 220 -3 94 -8 193 -10 220 l-5 50 26 -45 c36 -64 76 -103 181 -177 190
-132 259 -232 319 -457 l24 -91 -5 105 c-3 58 -7 159 -10 225 -3 66 -8 170
-10 230 -27 573 -22 523 -56 592 -39 82 -93 127 -238 203 -125 64 -179 104
-232 171 -31 40 -35 52 -38 117 -1 28 -5 32 -27 32 l-27 0 7 -137 c9 -188 14
-297 21 -438 3 -66 8 -160 10 -210 2 -49 7 -148 10 -220 3 -71 7 -168 10 -215
4 -81 9 -185 20 -435 3 -60 8 -158 11 -217 l6 -108 -48 28 c-105 58 -266 21
-373 -86 -104 -104 -156 -275 -117 -385 l14 -38 -37 -15 c-679 -289 -1674
-619 -2496 -829 -377 -96 -480 -118 -533 -111 -26 3 -141 14 -257 26 -115 11
-277 27 -360 35 -82 8 -382 38 -665 66 -283 27 -666 65 -850 83 -184 19 -336
33 -337 32 -2 -1 -16 -141 -33 -311 -17 -169 -33 -311 -35 -315 -3 -5 -67 -11
-142 -15 -76 -4 -149 -9 -163 -10 -176 -20 -1422 -28 -1845 -12 -121 5 -222
10 -225 12 -3 1 -74 6 -157 9 -84 4 -163 9 -175 11 -13 2 -63 6 -111 10 l-88
6 -132 86 c-337 219 -377 246 -377 253 0 4 12 11 28 15 45 11 120 64 175 125
264 293 283 779 41 1023 -74 74 -130 100 -216 100 -91 0 -171 -39 -257 -126
-156 -158 -234 -351 -235 -587 0 -143 15 -215 68 -325 53 -108 92 -145 279
-268 95 -61 228 -149 297 -195 l125 -83 -75 6 c-198 17 -738 81 -1024 121
-401 57 -1061 166 -1073 177 -2 2 145 57 326 122 l329 118 -9 26 c-69 180
-729 2024 -726 2027 2 3 16 0 31 -6 41 -15 170 -12 240 6 72 19 182 72 248
120 83 61 192 186 231 266 122 247 70 498 -114 552 -231 69 -564 -95 -721
-355 -61 -100 -83 -178 -82 -294 l0 -100 331 -915 c228 -629 328 -917 320
-921 -7 -4 -301 -111 -654 -238 l-643 -231 -277 64 c-153 36 -373 88 -489 116
l-210 51 -197 546 c-108 301 -196 548 -194 549 1 2 33 -2 70 -9 82 -14 174 0
281 41 100 39 177 92 272 187 132 132 201 297 192 461 -10 184 -107 276 -294
277 -97 0 -193 -27 -309 -86 -61 -32 -102 -63 -176 -137 -84 -83 -102 -108
-142 -190 -68 -142 -84 -251 -51 -359 8 -29 112 -321 230 -648 118 -328 213
-598 210 -600 -13 -13 -1788 486 -1812 510 -4 3 9 24 29 47 79 92 137 251 137
373 0 243 -169 355 -434 287 -206 -52 -408 -217 -494 -402 -15 -32 -31 -58
-36 -58 -38 0 -1515 495 -3116 1045 -962 330 -1600 545 -2125 716 -203 67
-371 122 -372 123 -2 2 82 357 314 1323 48 199 89 361 91 359 2 -2 9 -33 17
-69 31 -151 80 -236 263 -465 153 -192 210 -278 262 -400 86 -201 124 -471
103 -729 -5 -57 -6 -103 -2 -103 3 0 13 33 22 73 9 39 41 173 71 297 417 1738
418 1742 411 1810 -13 146 -59 271 -139 383 -24 34 -125 140 -225 235 -99 96
-204 204 -231 240 -58 77 -133 220 -155 296 -14 48 -14 57 9 151 14 55 23 101
22 102 -2 2 -24 7 -50 12 -34 6 -49 5 -51 -3 -3 -6 -63 -258 -135 -561 -213
-896 -307 -1287 -364 -1525 -30 -124 -116 -484 -191 -800 -75 -316 -141 -579
-145 -583 -4 -5 -29 -2 -56 6 -27 8 -233 72 -459 142 -1477 456 -2758 776
-3951 985 -180 31 -250 42 -569 90 -110 17 -205 32 -211 34 -6 2 -21 39 -34
83 -32 108 -157 462 -220 623 -336 856 -878 1422 -1515 1584 -304 77 -586 54
-892 -74 -330 -138 -702 -460 -984 -854 -267 -373 -419 -720 -521 -1188 l-23
-106 -55 -7 c-168 -19 -639 -91 -832 -126 -643 -116 -1312 -285 -1963 -496
l-210 -69 -3 -367 c-1 -202 -1 -367 1 -367 2 0 59 21 128 46 697 258 1446 475
2159 624 251 52 672 130 678 124 2 -1 -1 -65 -8 -141 -24 -286 -22 -996 5
-1285 3 -32 8 -86 11 -120 36 -408 81 -654 209 -1167 185 -737 444 -1576 730
-2365 47 -131 85 -239 83 -240 -2 -1 -104 -31 -228 -66 -1220 -344 -2400 -856
-3542 -1537 l-228 -136 0 -329 0 -329 21 12 c12 6 58 34 103 63 44 29 160 100
256 158 1179 708 2400 1243 3650 1598 80 22 150 43 157 45 9 3 150 -331 249
-588 2 -7 -65 -95 -152 -198 -1476 -1734 -2301 -2922 -2809 -4044 -318 -702
-438 -1213 -452 -1930 -9 -443 25 -819 112 -1237 l16 -78 -369 -367 c-203
-203 -462 -469 -575 -593 l-207 -225 0 -460 1 -460 27 31 c15 17 115 131 223
255 287 329 521 580 819 882 l265 268 12 -28 c7 -15 41 -102 76 -193 320 -822
827 -1515 1449 -1982 754 -566 1685 -957 2613 -1098 76 -11 140 -22 142 -24 1
-1 -75 -75 -170 -163 -200 -187 -550 -540 -756 -763 -1792 -1933 -3302 -4468
-4577 -7687 l-124 -313 0 -627 1 -628 98 260 c323 853 727 1822 1021 2450 23
50 69 149 102 220 75 163 483 986 575 1160 1160 2198 2396 3915 3835 5330 229
226 573 545 718 668 l65 54 140 7 c995 49 2067 321 2898 737 l98 49 20 -47
c122 -281 329 -824 438 -1148 302 -905 440 -1610 476 -2445 l6 -145 -172 -155
c-320 -286 -789 -760 -1110 -1120 -249 -279 -583 -687 -828 -1012 l-134 -178
-91 -1 c-153 -1 -207 2 -311 16 -311 44 -607 179 -870 396 l-89 74 34 8 c124
31 220 66 320 118 355 184 645 518 744 860 59 204 61 434 7 641 -80 304 -204
532 -396 723 -107 107 -191 168 -321 234 -497 250 -1182 170 -1744 -203 -541
-360 -758 -1054 -547 -1751 118 -387 359 -750 663 -996 474 -386 1232 -631
2025 -656 l196 -6 -112 -171 c-932 -1421 -1722 -3070 -2393 -4996 -99 -283
-286 -857 -358 -1095 -14 -50 -29 -96 -31 -103 -4 -10 57 -12 297 -10 l302 3
84 275 c708 2297 1588 4259 2647 5905 l155 239 138 27 c372 72 672 174 980
333 747 386 1193 1019 1348 1916 26 152 55 448 56 575 l0 50 148 126 c1408
1202 3076 2121 5075 2795 219 73 249 81 254 66 20 -58 77 -169 114 -223 43
-64 148 -176 203 -217 l28 -22 -57 -222 c-32 -123 -58 -227 -59 -232 -1 -8 93
-41 99 -34 2 2 27 95 56 208 28 113 55 208 58 212 4 4 36 -2 71 -13 91 -29
204 -24 282 13 180 84 323 342 358 647 7 56 10 133 7 171 -3 39 -2 72 2 75 12
7 647 168 891 225 457 108 1450 317 1825 384 44 8 243 44 443 81 371 67 1177
205 1200 205 9 0 12 -82 12 -376 0 -353 1 -375 18 -370 46 13 2320 586 2326
586 3 0 6 121 6 270 l0 270 23 5 c12 3 227 39 477 81 483 80 497 82 1140 199
862 157 1716 335 2522 525 70 16 162 32 205 35 164 12 294 44 443 111 41 18
203 67 360 109 3141 838 5674 2014 7870 3654 1306 975 2588 2257 3625 3626 54
72 140 173 190 225 70 73 99 113 128 173 21 43 104 172 184 285 291 411 647
957 938 1440 71 117 132 209 136 205 7 -8 159 -346 159 -354 0 -2 -30 -4 -67
-4 -200 -1 -412 -165 -484 -372 -24 -69 -25 -182 -3 -246 62 -183 348 -163
549 38 148 148 201 340 131 475 -26 51 -246 538 -246 545 0 3 46 85 101 182
826 1450 1536 2981 2168 4676 l112 298 -3 136 -3 135 -39 -108 c-628 -1753
-1361 -3390 -2156 -4819 -192 -345 -223 -396 -230 -388 -7 9 -276 607 -329
733 -54 127 -136 302 -142 304 -4 0 -219 -168 -479 -374 -534 -424 -579 -460
-564 -440 54 70 356 481 455 620 460 642 928 1359 1334 2040 174 293 172 290
195 290 16 0 20 7 20 35 0 27 34 95 144 288 l144 252 106 29 c58 16 108 27
110 25 3 -3 6 -129 7 -282 l1 -277 29 0 29 0 0 289 0 290 53 15 c28 8 71 20
95 26 42 11 46 17 36 56 l-6 21 -89 -22 -89 -23 0 184 0 184 50 94 c49 90 53
95 90 101 22 4 43 11 46 16 10 17 -5 59 -21 59 -8 0 -15 2 -15 5 0 3 51 103
114 223 309 590 652 1298 997 2057 l110 239 -3 120 -3 119 -34 -79 c-122 -279
-398 -880 -594 -1291 -245 -511 -714 -1433 -729 -1433 -4 0 -9 109 -10 243
l-3 242 -25 0 -25 0 -2 -249 c-2 -137 -4 -250 -5 -252 -2 -1 -117 -32 -255
-67 l-253 -65 0 284 0 284 -25 0 -25 0 -2 -292 -3 -292 -55 -13 c-130 -33
-130 -33 -130 -56 0 -44 10 -46 103 -22 l87 23 0 -263 0 -262 -57 -16 c-32 -9
-77 -21 -100 -27 -41 -10 -42 -11 -31 -40 12 -35 12 -35 108 -10 41 11 76 20
78 20 1 0 2 -72 2 -160 l0 -159 -134 -228 c-581 -991 -1170 -1878 -1830 -2758
-250 -334 -288 -378 -394 -461 -53 -43 -101 -80 -106 -85 -4 -4 -2 -23 5 -42
14 -41 32 -17 -280 -392 -292 -350 -850 -975 -994 -1113 l-34 -33 -7 48 c-3
26 -19 174 -36 328 -17 154 -33 298 -35 320 -12 99 -25 222 -25 242 l0 22 38
-22 c49 -29 158 -31 222 -3 158 69 260 222 260 391 0 155 -86 234 -240 223
-127 -9 -242 -93 -306 -223 -56 -114 -56 -131 17 -800 35 -321 60 -587 57
-590 -3 -4 -27 17 -54 45 -26 28 -86 74 -133 102 -211 126 -290 222 -361 436
-16 48 -29 81 -29 74 -1 -11 58 -562 90 -837 5 -49 12 -112 15 -140 2 -27 10
-67 16 -88 l11 -37 -129 -123 c-402 -383 -769 -707 -1168 -1031 -92 -75 -170
-135 -172 -133 -2 2 23 140 56 307 33 167 58 305 56 307 -2 2 -19 6 -37 9
l-34 6 -69 -354 c-63 -327 -70 -355 -95 -376 -124 -108 -769 -574 -1095 -791
-452 -300 -1164 -724 -1501 -894 l-49 -25 -76 142 c-42 77 -96 177 -120 221
-24 44 -59 109 -78 145 -19 36 -47 88 -62 115 -282 518 -811 1507 -809 1509 2
2 72 34 154 71 376 170 821 396 1245 633 2170 1211 4220 2952 6120 5197 84 99
150 169 160 168 8 -1 49 -14 90 -29 67 -25 89 -28 200 -28 104 -1 138 3 200
22 112 35 207 89 276 157 104 102 107 113 170 543 30 207 64 442 76 521 l21
144 152 206 c363 493 685 954 1041 1491 133 201 251 375 261 388 16 21 21 22
51 11 94 -33 238 16 325 111 112 123 137 241 97 469 l-21 124 47 76 c26 42
101 165 167 274 66 108 123 197 127 197 12 0 96 -169 116 -232 10 -32 19 -57
20 -55 1 1 -12 96 -30 210 l-33 207 42 73 c23 39 94 160 157 267 63 107 166
285 230 395 198 345 178 298 178 416 l0 103 -208 -365 c-353 -616 -415 -721
-422 -711 -4 4 -23 114 -43 245 -34 223 -39 241 -70 290 -54 84 -112 124 -255
177 -34 12 -65 26 -68 31 -3 5 73 111 169 236 162 212 471 627 650 874 76 106
77 106 162 145 84 39 85 39 85 77 0 41 -4 43 -40 22 -43 -24 -43 -17 -1 43 40
57 41 60 41 142 -1 97 5 99 -83 -25 l-49 -68 -22 65 c-74 220 -279 398 -486
422 -23 2 -44 6 -46 9 -2 2 62 76 143 164 82 87 237 256 346 376 l198 216 -3
75 -3 75 -242 -267z m-617 -1075 c96 -188 280 -326 461 -345 l62 -7 -91 -125
c-80 -110 -693 -928 -725 -967 -10 -13 -16 -13 -41 5 -54 39 -102 100 -102
131 0 16 -3 36 -6 45 -6 17 -39 22 -48 8 -3 -5 8 -91 24 -192 l29 -184 -102
-130 c-777 -1000 -1669 -2040 -2522 -2941 -233 -246 -909 -929 -988 -997 l-57
-50 -73 23 c-51 17 -95 24 -153 24 -76 0 -85 -3 -188 -53 -59 -28 -110 -52
-112 -52 -2 0 -31 55 -65 123 -34 67 -63 123 -64 125 -3 3 -43 -15 -53 -23 -2
-2 24 -57 57 -124 34 -66 61 -123 61 -127 0 -5 -674 -340 -1288 -640 l-273
-133 16 -30 c8 -17 18 -31 21 -31 2 0 285 138 627 306 724 357 923 454 931
454 8 0 63 -110 96 -192 l27 -66 -226 -205 c-654 -592 -1267 -1098 -1921
-1585 -151 -113 -281 -210 -287 -215 -9 -7 -17 -1 -26 21 l-12 30 -1830 -733
c-1220 -490 -1829 -739 -1827 -747 2 -7 54 -142 117 -301 63 -158 115 -291
115 -296 0 -11 -37 -28 -310 -148 -878 -384 -1790 -699 -2705 -933 -217 -55
-677 -162 -680 -158 -1 2 -7 131 -14 288 -12 270 -14 288 -38 342 -36 80 -106
143 -231 208 -124 63 -194 114 -244 178 -33 41 -38 54 -38 100 0 50 -2 53 -22
50 -32 -4 -32 -19 -8 -520 11 -238 23 -506 27 -595 l6 -162 -24 -5 c-118 -27
-689 -115 -919 -141 -25 -3 -61 -8 -80 -10 -19 -3 -51 -7 -70 -10 -228 -30
-825 -83 -1130 -100 -58 -4 -125 -8 -150 -10 -25 -2 -137 -7 -250 -10 -113 -4
-223 -8 -245 -10 -31 -2 -734 -6 -852 -5 -14 0 -29 14 -47 45 -26 44 -28 69
-10 137 4 13 -6 19 -47 27 -37 8 -54 8 -59 1 -4 -6 -12 -48 -19 -93 -7 -45
-15 -90 -18 -101 -5 -17 -16 -18 -232 -12 -124 3 -262 8 -306 11 -44 3 -136 7
-205 10 -69 3 -159 8 -200 10 -41 3 -181 12 -310 20 -129 8 -257 17 -285 20
-27 2 -108 9 -180 15 -260 21 -905 89 -1185 124 -457 58 -654 87 -661 98 -4 5
-12 42 -18 81 -6 40 -27 162 -46 272 -46 265 -181 1049 -206 1200 -12 66 -24
123 -27 126 -12 10 -91 -11 -87 -24 2 -7 15 -79 29 -162 14 -82 58 -334 96
-560 135 -784 158 -920 154 -924 -11 -11 -1076 163 -1744 285 -869 159 -1616
310 -3400 688 -454 96 -861 182 -905 191 -44 9 -177 37 -295 61 -1842 385
-3282 633 -4495 774 -137 16 -270 32 -295 35 -74 8 -454 45 -471 45 -14 0 -15
68 -11 690 2 380 1 690 -2 690 -3 0 -186 -90 -406 -200 -220 -110 -402 -200
-405 -200 -3 0 -6 222 -7 493 l-3 492 -52 3 -53 3 0 -951 0 -951 -172 6 c-95
4 -186 8 -203 10 -100 13 -907 16 -1263 5 -222 -6 -405 -10 -408 -8 -2 3 7 38
21 79 78 228 188 639 243 914 104 515 150 943 159 1480 12 765 -71 1489 -259
2253 -22 90 -38 165 -36 168 3 2 112 -9 244 -26 1223 -150 2531 -423 3999
-835 298 -84 729 -209 768 -224 l25 -10 -16 -65 c-9 -36 -19 -66 -24 -66 -4 0
-8 4 -8 9 0 22 -104 120 -157 148 -108 57 -156 68 -293 68 -230 -1 -396 -68
-568 -230 -103 -97 -187 -220 -233 -342 -29 -77 -33 -100 -33 -188 -1 -90 2
-106 28 -162 54 -117 177 -208 336 -249 103 -26 280 -16 393 23 228 79 448
280 535 488 18 44 109 399 127 498 4 20 13 37 20 37 45 0 1442 -452 2265 -733
1450 -495 2483 -836 3149 -1042 135 -41 247 -79 250 -84 3 -6 188 -516 411
-1135 223 -619 410 -1126 416 -1126 5 0 772 275 1703 610 932 336 1703 610
1715 610 11 0 127 -18 256 -39 742 -125 1731 -243 2310 -276 223 -13 187 2
460 -177 135 -88 389 -254 565 -369 176 -115 382 -249 457 -298 l136 -89 26
38 26 39 -195 128 c-108 70 -251 164 -318 208 -67 44 -259 170 -427 279 -168
109 -309 203 -315 208 -7 7 21 8 80 4 440 -28 1534 -26 2035 4 85 5 202 12
260 16 58 3 143 9 190 14 47 4 86 6 87 5 2 -1 -8 -111 -22 -246 -14 -134 -25
-252 -25 -261 0 -15 -5 -14 -36 7 -153 104 -444 34 -540 -130 -94 -162 -17
-278 194 -292 103 -7 189 14 270 67 103 66 142 135 156 270 38 388 58 585 60
587 1 1 119 14 261 27 143 14 278 28 300 31 22 2 152 18 288 36 227 28 257 30
349 20 56 -6 102 -12 103 -14 2 -1 -72 -745 -74 -754 -1 -1 -17 9 -37 22 -93
63 -261 63 -389 -1 -144 -72 -224 -233 -164 -330 12 -21 41 -43 77 -61 52 -26
67 -28 168 -28 107 0 112 1 186 38 88 43 171 125 188 185 5 20 28 219 50 442
51 523 46 488 73 483 12 -2 276 -28 587 -58 627 -60 662 -64 667 -69 2 -2 -12
-165 -32 -362 -19 -197 -35 -367 -35 -377 0 -17 -2 -17 -31 4 -107 76 -318 63
-449 -29 -91 -62 -150 -172 -135 -249 28 -153 317 -194 506 -72 71 45 125 116
139 181 6 29 39 347 74 706 35 359 66 655 69 658 2 3 117 34 253 69 798 203
1640 479 2399 786 l227 91 45 -13 c153 -42 314 32 415 191 11 18 71 51 209
114 729 334 1537 761 2242 1184 l167 101 0 -48 c0 -188 130 -288 339 -259 155
20 275 82 396 203 169 169 214 334 147 547 l-30 97 197 132 c766 518 1669
1192 2349 1757 63 52 116 92 118 89 5 -5 -8 -82 -120 -687 -93 -506 -87 -452
-52 -461 17 -5 31 -7 33 -6 3 4 28 135 97 512 107 584 135 728 143 735 4 4 51
42 103 86 561 466 1272 1106 1965 1769 301 288 1084 1072 1355 1358 l204 215
23 -80 c13 -44 31 -94 39 -111z m-204 -1790 c106 -38 175 -82 225 -145 36 -44
90 -134 104 -171 9 -22 7 -21 -26 8 -41 36 -119 76 -222 115 -77 29 -174 88
-210 127 -15 17 -24 43 -29 88 l-7 64 34 -26 c19 -14 78 -41 131 -60z m-202
-26 c0 -15 4 -52 10 -82 5 -30 24 -144 41 -254 17 -110 51 -328 75 -485 65
-413 64 -372 13 -456 -43 -71 -45 -72 -94 -78 -110 -15 -228 -100 -284 -206
-56 -104 -70 -257 -32 -329 8 -15 -23 -69 -173 -297 -344 -526 -749 -1110
-1089 -1574 -83 -113 -98 -129 -93 -100 5 29 126 870 126 877 0 4 -71 15 -75
12 -2 -2 -35 -229 -74 -504 -40 -275 -74 -512 -77 -527 -5 -27 -162 -239 -430
-584 l-132 -170 -84 -18 c-225 -47 -408 -202 -448 -379 -12 -56 1 -128 31
-170 l20 -28 -108 -127 c-1011 -1194 -1943 -2140 -2981 -3025 l-92 -78 40 73
c49 91 74 193 66 268 -4 40 -99 288 -351 915 -189 473 -346 865 -347 871 -2 7
96 85 217 174 675 499 1335 1039 1998 1637 131 118 240 213 242 211 3 -2 77
-151 166 -331 88 -180 165 -327 171 -327 5 0 18 5 29 10 18 10 13 22 -72 193
-51 100 -107 215 -125 256 l-34 73 27 -17 c125 -83 244 -113 362 -94 144 23
213 97 213 228 0 132 -64 266 -184 383 l-78 77 321 318 c1052 1040 2145 2271
3128 3520 78 101 147 180 152 177 5 -3 9 -18 9 -33z m-2425 -122 c81 -23 125
-78 125 -157 0 -97 -46 -163 -167 -243 -141 -92 -313 -149 -449 -149 -70 0
-89 4 -134 28 -88 45 -111 120 -66 214 88 185 488 363 691 307z m2758 -404
c59 -32 125 -74 147 -92 l39 -34 -61 -102 c-188 -314 -233 -382 -236 -357 -1
14 -14 97 -28 185 -13 88 -39 255 -57 370 l-32 211 60 -61 c42 -43 92 -79 168
-120z m-3376 -198 c101 -54 222 -70 337 -43 44 11 55 11 45 2 -33 -31 -336
-293 -461 -400 -76 -64 -138 -111 -138 -104 0 7 14 85 30 173 16 88 42 228 57
312 l27 152 27 -32 c15 -18 49 -45 76 -60z m-27447 -155 c0 -11 13 -46 30 -79
30 -60 82 -114 258 -271 211 -188 298 -407 326 -822 l4 -65 -33 72 c-56 120
-111 190 -320 403 -229 234 -296 325 -335 457 -12 39 -10 56 20 183 19 77 37
140 42 140 4 0 8 -8 8 -18z m30700 -498 c0 -8 -5 -12 -10 -9 -6 4 -8 11 -5 16
9 14 15 11 15 -7z m-38545 -328 c128 -34 336 -155 486 -283 l54 -46 -125 7
c-362 19 -580 26 -919 26 l-374 0 24 26 c37 40 171 139 242 178 79 44 183 84
267 102 81 17 262 12 345 -10z m810 -852 c66 -3 125 -7 132 -9 28 -9 152 -291
216 -490 68 -210 125 -478 148 -684 5 -53 12 -107 15 -121 3 -14 8 -151 11
-305 4 -219 2 -318 -11 -455 -91 -945 -419 -1855 -1037 -2874 -63 -103 -125
-200 -139 -215 -23 -24 -41 -29 -195 -54 -130 -21 -619 -116 -790 -154 -18 -4
-32 30 -143 354 -464 1356 -705 2397 -729 3143 -18 575 110 1203 347 1707 59
127 47 119 195 128 50 3 153 10 230 15 77 6 241 13 365 16 124 4 227 9 230 12
6 6 982 -6 1155 -14z m28149 -1093 c127 -62 190 -125 247 -246 57 -121 57
-128 0 -75 -26 25 -102 74 -167 110 -143 77 -234 158 -234 207 0 16 -3 52 -7
79 l-6 48 32 -36 c20 -24 69 -55 135 -87z m9217 -221 c-5 -38 -281 -547 -307
-566 -13 -11 -170 -54 -194 -54 -7 0 -10 87 -10 260 l0 260 23 5 c12 4 121 33
242 65 121 32 227 57 235 56 10 -1 14 -10 11 -26z m-3715 -114 c36 -13 70 -28
75 -33 12 -12 -259 -266 -273 -257 -5 4 -23 34 -39 68 -35 73 -39 157 -11 193
43 56 142 67 248 29z m244 -136 c152 -113 240 -237 240 -339 0 -180 -175 -201
-415 -50 -91 57 -198 146 -193 160 3 9 290 279 297 279 2 0 34 -23 71 -50z
m3471 -112 c-1 -68 -5 -126 -9 -130 -11 -10 -163 -47 -160 -38 11 28 164 298
167 294 2 -2 3 -59 2 -126z m-1646 -328 c-25 -172 -45 -317 -45 -322 0 -5 -19
7 -42 26 -47 41 -124 72 -216 90 l-63 11 148 191 c81 104 173 223 203 263 30
41 56 69 57 64 2 -5 -17 -151 -42 -323z m1277 -2 c-11 -18 -45 -78 -77 -133
-31 -55 -59 -102 -61 -105 -3 -2 -3 49 -2 115 l3 118 60 18 c33 10 68 18 78
18 18 1 18 0 -1 -31z m-24259 -1289 c541 -155 1368 -371 1902 -496 l80 -19 57
-159 c32 -87 57 -159 55 -160 -10 -6 -2075 -748 -2085 -749 -9 -1 -109 262
-303 799 -158 440 -288 804 -289 809 0 4 8 5 18 1 9 -3 40 -11 67 -16 57 -10
184 7 245 34 19 8 36 16 38 16 2 1 98 -26 215 -60z m2354 -598 c128 -28 236
-51 240 -51 5 -1 -84 -35 -197 -76 -113 -41 -209 -72 -215 -70 -9 3 -96 230
-95 249 0 5 8 6 18 3 9 -3 122 -28 249 -55z m-11175 -325 l-3 -346 -339 -170
c-187 -94 -344 -170 -348 -170 -5 0 -10 155 -11 344 l-2 343 348 176 c191 96
350 174 353 172 3 -2 4 -159 2 -349z m18473 205 c165 -17 427 -42 583 -57
l283 -28 -5 -34 c-2 -19 -9 -38 -15 -41 -6 -4 -84 -17 -175 -30 l-164 -22
-219 21 c-120 12 -325 32 -457 46 -131 13 -245 24 -253 24 -11 0 -12 13 -7 68
8 98 6 95 72 88 31 -4 192 -19 357 -35z m1105 -110 c41 -6 36 -8 -73 -25 -65
-10 -119 -17 -122 -15 -2 2 -1 17 2 32 l6 28 71 -7 c39 -4 91 -10 116 -13z
m7550 -126 c22 -54 37 -102 33 -105 -12 -11 -1723 -693 -1727 -689 -5 7 -26
72 -24 74 2 1 73 44 158 95 141 85 380 235 535 334 66 42 965 407 977 397 4
-4 26 -51 48 -106z m-6796 53 l338 -32 -6 -75 c-4 -42 -9 -77 -11 -80 -6 -5
-168 9 -715 63 -256 25 -478 47 -495 48 -69 4 -38 13 171 49 120 20 239 41
264 47 71 16 94 15 454 -20z m-1862 -45 c103 -9 185 -19 183 -21 -3 -4 -400
-44 -554 -57 l-84 -7 7 32 c3 18 6 47 6 64 l0 32 128 -12 c70 -7 211 -21 314
-31z m8923 -670 c103 -258 195 -489 206 -515 l18 -46 -32 9 c-79 23 -184 3
-307 -58 -93 -46 -219 -168 -267 -259 -114 -216 -70 -442 95 -490 66 -19 142
-14 229 15 32 11 59 18 60 17 5 -5 -361 -292 -610 -480 -769 -580 -1521 -1065
-2354 -1519 -260 -142 -823 -424 -1072 -537 -144 -65 -165 -72 -175 -58 -6 9
-70 124 -141 256 l-129 240 -38 -19 c-21 -11 -38 -24 -38 -29 0 -6 59 -118
130 -251 72 -132 130 -244 130 -249 0 -14 -592 -258 -940 -387 -257 -95 -599
-213 -809 -278 l-183 -57 -66 65 c-36 37 -64 68 -62 70 3 2 106 64 230 137
124 73 232 139 240 146 12 12 12 16 -2 30 -19 19 5 31 -287 -143 l-224 -134
-72 71 -71 71 -24 -26 -24 -25 63 -64 63 -64 -23 -15 c-73 -45 -400 -238 -414
-243 -12 -5 -37 13 -86 62 l-69 69 -26 -26 -25 -26 67 -62 c52 -49 64 -65 53
-72 -76 -50 -130 -71 -284 -108 -622 -149 -1276 -273 -1900 -361 -121 -17
-231 -33 -245 -35 -70 -11 -664 -77 -860 -95 -318 -30 -830 -67 -839 -60 -4 3
5 61 21 130 49 220 158 726 211 985 l51 250 0 225 c-1 210 -2 231 -26 321 -50
184 -128 319 -261 451 -65 64 -137 121 -383 301 -43 32 -94 70 -112 86 l-33
29 118 6 c65 3 179 8 253 11 145 6 269 12 390 20 41 3 147 10 235 15 164 11
373 27 435 35 19 2 69 7 110 10 459 37 1222 141 1803 246 125 23 230 40 232
38 4 -5 12 -127 20 -324 3 -77 8 -168 11 -202 3 -35 2 -63 -1 -63 -3 0 -18 9
-33 20 -38 28 -116 41 -177 29 -147 -27 -263 -134 -315 -290 -30 -88 -25 -191
13 -247 59 -91 202 -114 328 -56 114 54 200 160 234 290 16 61 16 63 -10 579
-2 55 -6 140 -7 190 l-3 90 185 38 185 38 22 -28 c29 -35 78 -153 101 -238 9
-36 20 -65 25 -65 4 0 5 10 3 23 -3 12 -8 93 -11 179 l-6 157 38 9 c21 5 173
42 338 82 877 212 1660 459 2460 778 247 99 608 252 779 331 48 22 94 42 103
43 11 2 67 -127 213 -492 110 -272 198 -496 196 -497 -2 -2 -15 1 -30 7 -39
14 -99 12 -169 -6 -306 -79 -527 -399 -451 -653 50 -168 228 -207 454 -99 69
33 101 57 171 127 93 92 144 181 169 290 26 111 20 130 -234 763 -130 324
-236 592 -236 597 0 5 17 16 38 24 20 9 116 54 213 100 136 66 1374 573 1450
594 13 4 53 -87 204 -464 103 -257 196 -489 206 -515 l18 -46 -37 10 c-20 6
-64 8 -97 5 -212 -21 -430 -193 -507 -402 -30 -81 -33 -242 -4 -295 78 -147
239 -169 456 -63 57 28 95 57 160 122 94 94 138 169 166 281 30 118 29 123
-235 782 -133 332 -241 608 -241 613 0 9 1690 693 1716 694 7 1 96 -209 199
-466z m-27395 36 l0 -191 -27 6 c-16 2 -73 8 -128 11 -55 3 -116 8 -135 10
-19 2 -107 9 -195 15 -87 6 -160 12 -161 13 -3 3 629 326 639 327 4 0 7 -86 7
-191z m25690 177 c0 -5 -279 -172 -301 -181 -12 -4 -19 2 -27 23 l-10 28 162
66 c160 66 176 72 176 64z m-381 -231 c-26 -25 -670 -380 -972 -534 -236 -121
-683 -310 -697 -294 -11 11 -80 184 -80 199 0 10 320 141 1455 595 l270 107
14 -34 c7 -19 12 -37 10 -39z m50 -112 c7 -14 8 -29 4 -33 -7 -6 -366 -152
-413 -167 -8 -3 75 47 185 111 110 63 203 116 206 116 3 0 11 -12 18 -27z
m6895 -375 c86 -191 156 -350 156 -354 0 -11 -271 -459 -428 -709 -235 -373
-676 -1030 -728 -1085 -12 -12 -14 -12 -14 6 0 10 -10 37 -21 59 -20 36 -72
150 -229 500 -32 72 -124 276 -205 455 -80 179 -149 330 -151 336 -8 18 1448
1168 1457 1152 4 -7 77 -169 163 -360z m-33019 -63 c28 -2 113 -6 190 -9 134
-6 446 -23 530 -30 l40 -3 3 -71 3 -72 54 0 55 0 0 65 0 65 43 0 c137 0 1097
-101 1612 -169 1296 -172 2501 -393 4820 -882 1849 -390 3339 -657 4435 -795
25 -3 88 -12 140 -19 52 -8 214 -28 360 -45 146 -18 268 -35 271 -38 4 -4 19
-77 33 -162 44 -265 106 -624 111 -646 4 -18 -2 -17 -66 15 -63 31 -82 36
-164 39 -323 14 -635 -215 -744 -546 -75 -231 -34 -439 108 -544 94 -69 279
-89 431 -47 309 85 555 379 577 689 4 71 -1 121 -32 300 -101 592 -153 895
-151 896 0 1 55 -5 121 -12 352 -40 1090 -101 1420 -119 61 -3 135 -8 165 -10
30 -2 168 -9 305 -15 138 -5 300 -12 360 -15 61 -2 333 -8 606 -11 l496 -7
-44 -251 c-24 -138 -63 -368 -88 -511 -41 -241 -119 -697 -281 -1640 -36 -209
-68 -389 -71 -399 -5 -18 -25 -19 -777 -12 -424 3 -784 8 -801 10 -16 2 -136
7 -265 10 -129 4 -253 9 -275 11 -22 2 -112 6 -200 10 -88 3 -187 8 -220 10
-33 2 -112 7 -175 10 -184 9 -1110 68 -1245 80 -33 2 -96 7 -140 10 -44 3
-105 8 -135 10 -30 3 -255 21 -500 40 -245 19 -459 38 -476 40 -30 5 -33 9
-54 88 -35 128 -50 250 -50 401 -1 147 -2 143 55 212 l26 32 -49 41 -49 41
-296 -354 c-163 -194 -305 -363 -315 -376 l-18 -22 -235 21 c-273 25 -1381
119 -1654 141 -527 42 -915 71 -1145 85 -47 3 -110 8 -140 10 -78 7 -499 32
-730 45 -324 17 -379 19 -535 25 -82 3 -184 7 -225 10 -41 2 -183 7 -315 10
-132 4 -287 8 -345 10 -58 2 -291 4 -519 5 l-414 0 -40 43 c-137 146 -210 331
-208 532 1 106 16 181 84 410 52 177 71 305 64 439 -8 174 -55 271 -208 430
-232 242 -536 389 -837 403 -138 7 -138 7 -82 -67 112 -146 197 -366 219 -562
8 -72 6 -297 -3 -354 -2 -16 -10 -65 -16 -109 -7 -44 -22 -132 -35 -195 -52
-259 -57 -436 -16 -595 33 -127 77 -207 201 -367 l22 -28 -84 0 c-45 0 -157
-5 -248 -10 -91 -5 -212 -12 -270 -15 -58 -3 -127 -7 -155 -10 -27 -3 -90 -7
-140 -10 -123 -8 -534 -44 -565 -50 -14 -2 -59 -7 -100 -10 -41 -3 -86 -8
-100 -10 -14 -2 -47 -7 -75 -9 -223 -24 -526 -65 -824 -112 l-225 -36 -110 21
c-106 19 -280 44 -396 56 -129 13 -601 17 -735 6 -421 -34 -759 -99 -1123
-216 -131 -42 -162 -47 -162 -26 0 5 -35 82 -79 172 -43 90 -103 218 -134 284
-30 66 -72 156 -92 200 -330 709 -720 1589 -712 1609 3 8 50 74 105 147 341
460 615 886 912 1419 84 150 289 570 365 745 38 88 72 164 75 168 12 14 467
44 815 54 121 3 222 8 225 10 5 5 1173 -6 1255 -12z m-4342 -427 c-42 -57
-101 -134 -131 -172 l-55 -68 -48 128 c-27 70 -47 130 -44 133 6 5 317 78 343
80 7 1 -22 -45 -65 -101z m35612 -171 c7 -18 48 -109 90 -203 42 -93 103 -227
135 -299 33 -71 127 -281 210 -465 83 -184 153 -339 156 -345 3 -6 -23 -9 -69
-7 -246 11 -507 -248 -507 -503 0 -164 83 -243 245 -233 l75 5 -27 -36 c-172
-231 -592 -743 -849 -1036 -489 -556 -1075 -1147 -1614 -1627 -454 -403 -987
-828 -1460 -1164 -246 -174 -274 -194 -480 -331 -1798 -1197 -3847 -2090
-6335 -2762 -310 -83 -586 -153 -591 -149 -1 2 17 34 41 72 89 137 131 290
122 434 -3 48 -53 335 -112 637 -58 303 -116 606 -129 675 -13 69 -36 189 -51
268 -16 78 -25 145 -22 148 3 3 90 26 194 50 262 61 632 155 864 220 108 30
201 54 207 54 28 0 159 -302 219 -505 17 -60 32 -101 33 -90 0 29 -45 298 -81
482 -16 85 -29 156 -27 157 2 1 84 26 183 56 523 154 1207 394 1755 615 218
88 630 265 692 296 l37 19 6 -58 c26 -221 103 -357 237 -417 163 -73 399 -5
568 165 193 194 280 477 225 735 -12 56 -13 72 -3 78 7 4 101 55 208 113 705
382 1431 849 2109 1357 145 108 265 196 267 195 1 -2 -4 -32 -12 -68 -7 -36
-52 -263 -99 -505 -47 -242 -88 -448 -91 -458 -5 -16 -11 -13 -44 17 -80 72
-177 106 -325 113 -196 9 -361 -47 -487 -166 -156 -147 -178 -321 -54 -427 96
-83 224 -118 401 -111 100 3 133 9 200 33 102 37 159 71 229 135 99 90 99 90
246 844 115 591 133 672 153 688 12 10 112 92 222 182 390 318 755 639 1139
1003 l170 160 40 -34 c22 -19 63 -45 91 -58 230 -108 250 -119 307 -176 39
-40 58 -66 58 -83 0 -13 3 -39 6 -56 6 -26 10 -30 28 -25 11 4 22 8 24 9 2 1
-9 108 -23 236 -14 129 -33 297 -41 374 -8 77 -18 171 -23 209 l-8 68 130 137
c320 335 667 727 1004 1132 118 142 217 259 220 259 2 0 10 -15 18 -33z
m-11001 -390 c128 -62 180 -115 246 -250 28 -56 50 -106 50 -111 0 -5 -24 13
-52 41 -29 27 -93 71 -143 97 -125 67 -190 112 -226 157 -25 32 -31 50 -36
111 l-6 72 34 -35 c19 -18 79 -55 133 -82z m-86 -435 c14 -19 77 -70 139 -115
62 -44 113 -83 113 -86 0 -11 -284 -60 -290 -51 -4 6 -7 52 -8 102 -2 51 -5
127 -7 168 -5 74 -5 75 11 45 10 -16 28 -45 42 -63z m9390 -777 c34 -16 62
-31 62 -35 0 -3 -20 -25 -44 -49 l-43 -42 -30 38 c-39 51 -67 98 -92 155 l-20
47 53 -43 c29 -23 80 -55 114 -71z m206 -104 c67 -46 106 -96 106 -135 0 -18
3 -49 7 -67 l6 -33 -43 36 c-23 21 -59 43 -79 49 -20 6 -65 25 -100 41 l-65
28 54 55 c30 30 58 55 63 55 5 0 28 -13 51 -29z m-13535 -239 c41 -53 120
-110 276 -197 150 -84 237 -148 312 -228 125 -134 208 -302 258 -520 21 -96
19 -100 -19 -31 -81 151 -204 274 -461 459 -253 184 -435 371 -435 449 0 41
21 129 29 119 4 -4 22 -27 40 -51z m-3594 -336 c59 -27 82 -51 101 -103 55
-156 -48 -380 -272 -593 -108 -102 -188 -159 -298 -211 -77 -37 -99 -43 -170
-47 -73 -3 -86 -1 -136 25 -41 21 -62 40 -85 77 -28 45 -30 57 -30 140 0 84 3
97 36 166 43 89 127 197 235 301 235 225 466 317 619 245z m-16645 -306 c51
-107 215 -438 364 -735 149 -298 298 -601 330 -675 33 -74 86 -191 118 -259
32 -68 58 -127 58 -130 0 -4 -26 -19 -57 -35 -189 -92 -466 -270 -648 -417
-135 -108 -314 -280 -423 -406 l-72 -83 -262 -133 c-785 -400 -1557 -883
-2236 -1399 -79 -60 -146 -108 -148 -105 -7 7 25 166 67 326 101 391 241 752
448 1156 137 267 243 445 469 785 336 508 397 585 1242 1560 117 135 310 361
428 503 118 142 218 254 222 250 3 -4 48 -96 100 -203z m20164 -145 c25 -20
114 -73 198 -117 83 -43 180 -99 215 -124 135 -96 241 -236 304 -399 33 -84
73 -251 84 -345 l6 -55 -33 80 c-77 183 -185 304 -461 512 -210 158 -327 267
-392 362 l-46 68 12 66 12 66 28 -38 c15 -21 48 -55 73 -76z m7956 -547 c191
-355 342 -635 452 -838 84 -156 180 -334 255 -475 42 -77 87 -160 100 -184
l25 -44 -27 7 c-59 15 -120 15 -188 1 -247 -51 -465 -279 -540 -565 l-22 -84
-225 -99 c-532 -233 -1188 -480 -1776 -668 -285 -91 -695 -212 -700 -206 -2 2
-20 58 -38 123 -92 319 -183 503 -307 619 -110 103 -194 133 -487 175 -222 31
-344 62 -457 113 -141 63 -297 167 -406 269 -42 39 -47 49 -53 101 -4 31 -11
57 -15 57 -23 0 -121 -24 -121 -29 0 -4 45 -243 100 -531 56 -289 109 -570
120 -625 10 -55 32 -170 49 -255 54 -281 73 -391 69 -395 -12 -12 -792 -157
-1183 -219 -527 -84 -886 -133 -1560 -211 -48 -6 -308 -33 -385 -40 -30 -3
-95 -10 -145 -15 -49 -5 -115 -11 -145 -14 -30 -3 -82 -8 -115 -11 -390 -35
-937 -76 -1400 -105 -181 -11 -366 -22 -410 -25 -44 -3 -170 -10 -280 -15
-110 -6 -238 -12 -285 -15 -47 -3 -139 -7 -205 -10 -66 -3 -221 -10 -345 -15
-124 -5 -283 -12 -355 -15 -71 -3 -182 -7 -245 -10 -218 -9 -396 -16 -820 -30
-234 -8 -481 -17 -550 -20 -135 -5 -323 -12 -545 -20 -336 -11 -456 -16 -545
-20 -52 -3 -160 -7 -240 -10 -80 -3 -188 -7 -240 -10 -52 -3 -153 -7 -225 -10
-155 -7 -693 -33 -820 -40 -246 -14 -597 -36 -655 -40 -36 -3 -135 -10 -220
-15 -85 -6 -180 -13 -210 -15 -30 -3 -147 -12 -260 -21 -398 -29 -1195 -108
-1515 -149 -22 -3 -94 -12 -160 -20 -743 -95 -1242 -176 -1890 -306 -453 -91
-997 -218 -1340 -313 -49 -14 -90 -24 -92 -22 -1 1 11 63 27 137 61 281 75
420 75 784 -1 351 -8 439 -61 745 -202 1169 -807 2025 -1797 2538 -94 49 -96
51 -65 57 170 28 499 70 783 100 83 9 166 18 185 20 19 3 118 11 220 20 102 8
205 17 230 20 25 2 122 9 215 15 94 5 195 12 225 15 30 2 120 7 200 10 80 4
214 10 298 13 83 4 152 6 152 4 0 -2 -44 -58 -99 -125 -115 -142 -154 -207
-177 -297 -53 -206 64 -519 253 -674 79 -66 150 -104 268 -146 83 -29 312 -76
322 -66 3 3 -15 42 -39 88 -143 271 -198 445 -198 624 0 258 103 399 414 564
l98 53 537 -7 c295 -4 565 -9 601 -11 36 -2 153 -6 260 -10 250 -7 798 -33
1085 -50 44 -2 125 -7 180 -10 55 -3 125 -8 155 -10 30 -2 100 -7 155 -10 55
-3 125 -8 155 -10 30 -3 215 -16 410 -30 195 -14 378 -27 405 -30 69 -6 142
-12 425 -35 135 -11 268 -22 295 -24 28 -2 197 -17 378 -32 180 -15 326 -31
325 -35 -6 -15 -1283 -1538 -1290 -1538 -5 -1 -8 10 -8 24 0 13 -10 52 -23 87
-97 268 -436 512 -808 583 -102 19 -284 19 -381 1 -224 -43 -420 -171 -494
-321 -26 -54 -29 -70 -29 -155 0 -104 19 -163 86 -277 45 -74 175 -206 269
-272 371 -261 882 -296 1187 -81 62 43 167 164 864 995 l793 947 68 -6 c37 -3
100 -9 138 -12 l70 -7 39 -76 c21 -42 76 -137 121 -211 171 -278 230 -442 230
-642 0 -285 -120 -580 -390 -958 l-32 -45 34 36 c458 499 743 896 834 1161 72
212 50 359 -86 582 -54 88 -57 96 -36 96 19 0 159 -10 356 -25 36 -3 169 -12
295 -20 127 -8 262 -17 300 -20 126 -9 565 -34 790 -45 121 -5 261 -12 310
-15 50 -2 180 -7 290 -10 110 -4 214 -8 230 -10 17 -2 208 -7 425 -11 217 -3
411 -7 430 -9 19 -2 115 -4 213 -4 l177 -1 -61 -72 c-33 -40 -79 -111 -102
-157 -40 -81 -42 -88 -42 -180 0 -107 15 -147 81 -221 112 -123 352 -200 589
-187 253 14 462 103 627 267 129 129 153 184 194 448 9 62 21 115 26 118 5 3
97 10 206 14 108 5 240 12 292 15 52 3 138 8 190 10 111 6 207 12 307 21 l71
5 6 -28 c13 -65 26 -270 27 -432 0 -106 4 -169 10 -160 4 8 38 138 75 289 36
151 70 291 75 310 l9 36 157 13 c87 7 176 14 198 16 22 3 90 9 150 15 122 12
114 11 375 40 908 101 1940 281 2762 483 120 30 139 32 151 19 13 -13 22 -11
70 17 36 20 126 51 254 86 l198 54 143 -142 c78 -78 142 -145 142 -148 0 -4
-100 -67 -222 -140 -288 -171 -260 -151 -243 -176 15 -21 20 -19 263 127 l247
148 72 -71 72 -71 26 24 26 24 -66 66 -65 66 217 128 c120 71 222 131 227 134
4 2 40 -28 80 -67 l72 -72 24 26 24 25 -64 65 c-35 35 -62 66 -59 69 2 2 95
59 206 125 188 113 202 123 190 141 -6 11 -15 20 -19 20 -4 0 -96 -54 -205
-119 -109 -66 -203 -121 -209 -123 -6 -2 -48 32 -93 74 l-83 77 133 42 c426
134 1170 413 1604 602 83 36 155 66 160 66 6 0 102 -171 215 -381z m-7985
-257 c302 -167 437 -309 540 -565 33 -80 89 -275 82 -282 -5 -5 -441 -23 -738
-30 l-266 -7 33 189 c18 104 55 324 84 489 28 165 54 316 57 336 l5 36 62 -61
c35 -35 96 -80 141 -105z m5656 48 c32 -29 59 -55 59 -59 0 -7 -65 -27 -364
-111 -98 -27 -183 -48 -190 -46 -8 3 416 265 432 267 2 0 30 -23 63 -51z m237
-232 l83 -84 -221 -132 c-121 -73 -225 -131 -230 -129 -5 2 -69 62 -143 135
l-134 132 56 16 c131 38 456 137 460 141 18 18 56 -5 129 -79z m2952 -1175
c34 -17 100 -93 100 -116 0 -6 -107 -65 -237 -130 -304 -153 -463 -227 -463
-218 0 16 104 189 145 242 52 67 147 158 198 189 83 51 194 65 257 33z m120
-329 c-46 -349 -329 -752 -554 -786 -92 -14 -193 38 -236 123 -42 82 -44 222
-5 340 l15 45 197 94 c109 52 284 138 388 192 105 53 194 94 199 89 4 -4 3
-48 -4 -97z m-26155 -554 c643 -68 1271 -417 1575 -876 225 -340 400 -856 454
-1338 22 -189 15 -576 -13 -755 -20 -128 -76 -377 -90 -397 -3 -5 -98 -46
-211 -92 -113 -46 -310 -131 -438 -188 -129 -56 -237 -103 -241 -103 -4 0 -30
46 -56 103 -130 271 -377 745 -705 1352 -268 495 -366 681 -637 1205 -203 392
-515 1012 -511 1016 8 7 217 53 298 64 175 26 387 29 575 9z m21070 -174 c91
-54 196 -82 429 -115 314 -45 452 -85 586 -171 107 -69 272 -232 252 -250 -22
-21 -1207 -307 -1219 -295 -2 2 -10 39 -19 82 -43 224 -164 858 -164 861 0 1
17 -15 38 -37 20 -22 64 -56 97 -75z m-22260 -292 c60 -126 156 -325 213 -443
57 -118 139 -287 181 -375 343 -711 514 -1055 725 -1455 91 -173 272 -524 400
-780 l235 -465 -67 -35 c-750 -384 -1563 -903 -2231 -1425 -85 -66 -163 -125
-172 -130 -33 -19 -373 7 -674 51 -514 75 -991 225 -1347 421 -466 256 -1086
817 -1414 1280 -211 297 -380 627 -485 947 -69 209 -129 509 -144 711 -3 44
-8 96 -10 115 -4 35 -2 38 123 141 287 238 684 541 1001 764 348 244 1012 667
1026 653 3 -2 -9 -45 -25 -94 -107 -313 -151 -585 -149 -904 2 -276 21 -439
79 -685 210 -890 814 -1644 1573 -1965 206 -87 474 -158 666 -176 86 -8 87
-17 -11 105 -86 106 -272 386 -360 541 -253 446 -410 876 -474 1305 -22 145
-26 455 -8 587 86 632 445 1107 1109 1472 66 36 123 65 126 66 3 0 54 -102
114 -227z m22208 -725 c3 -13 56 -286 117 -608 62 -322 118 -616 125 -655 8
-38 12 -71 10 -73 -2 -2 -25 8 -52 22 -176 89 -467 67 -730 -54 -231 -107
-435 -297 -538 -500 -103 -204 -121 -427 -46 -573 17 -33 30 -61 29 -62 -5 -5
-546 -114 -883 -179 -477 -91 -775 -146 -1345 -245 -160 -28 -792 -133 -1050
-175 -118 -19 -300 -49 -403 -65 -103 -17 -194 -31 -202 -31 -13 0 -15 79 -15
591 l0 590 33 -25 c60 -45 129 -61 272 -61 120 0 137 3 218 32 115 40 187 84
263 159 117 116 171 279 130 389 -61 159 -339 225 -594 139 -155 -51 -307
-176 -368 -301 l-29 -58 -3 -737 c-2 -502 -6 -738 -13 -738 -21 0 -2107 -334
-2156 -345 l-23 -5 0 515 0 515 46 -30 c68 -42 176 -64 288 -57 268 17 510
184 577 398 47 150 -1 259 -141 323 -145 66 -369 52 -538 -33 -137 -69 -249
-183 -292 -298 -20 -55 -21 -69 -20 -699 l0 -644 -22 -5 c-25 -5 -148 -26
-463 -80 -1426 -243 -2828 -537 -3788 -796 -82 -22 -153 -39 -158 -37 -5 2
-24 37 -42 79 -43 97 -93 178 -159 258 l-54 64 82 316 c45 174 84 326 88 337
5 18 0 22 -45 33 -27 7 -52 12 -54 10 -3 -4 -52 -192 -126 -479 -17 -69 -35
-129 -40 -134 -4 -5 -21 1 -38 13 -63 45 -29 36 -1136 321 -429 111 -838 216
-910 235 -71 19 -420 109 -775 200 -686 177 -865 223 -891 231 -13 3 -20 -9
-33 -57 -10 -33 -16 -62 -14 -64 2 -2 147 -40 323 -85 176 -45 412 -106 525
-136 277 -72 2149 -555 2308 -595 l128 -33 -77 -75 c-62 -62 -85 -94 -122
-171 -81 -165 -119 -347 -111 -531 l3 -87 -315 -106 c-1678 -566 -3143 -1294
-4401 -2188 -155 -109 -532 -392 -645 -483 -48 -38 -58 -43 -58 -27 0 49 -33
353 -56 516 -120 857 -429 1918 -877 3016 l-35 84 142 94 c695 465 1210 1035
1521 1685 l80 167 154 50 c635 207 1468 421 2218 569 1073 213 2135 356 3528
476 224 19 900 65 1240 85 99 6 216 12 260 15 140 8 267 15 385 20 63 3 165 8
225 10 229 11 304 15 445 20 80 3 186 7 235 10 50 2 162 7 250 10 352 12 996
35 1095 40 58 2 170 7 250 10 244 9 691 29 900 40 52 3 223 12 380 20 157 8
312 17 345 20 33 2 107 7 165 10 156 8 234 13 605 40 122 9 338 25 400 30 33
3 168 14 300 25 421 36 1120 107 1360 140 39 5 90 11 115 14 682 77 1766 254
2470 405 124 27 230 49 236 50 7 0 14 -9 17 -21z m-19453 -2909 c-82 -115
-216 -279 -228 -279 -8 0 -92 177 -92 193 0 9 382 197 389 191 2 -2 -29 -49
-69 -105z m-712 -493 c59 -128 71 -161 61 -172 -17 -21 -339 -233 -434 -287
-276 -154 -567 -280 -820 -352 -234 -67 -637 -145 -610 -117 45 46 671 471
925 629 344 213 778 464 795 459 5 -1 43 -74 83 -160z m15102 -154 l0 -37
-192 -49 c-106 -26 -386 -97 -623 -157 -236 -60 -636 -161 -888 -225 -251 -63
-464 -117 -472 -120 -13 -5 -15 14 -15 133 l0 140 73 12 c132 22 1430 231
1532 246 55 9 206 33 335 54 129 22 238 40 243 40 4 1 7 -16 7 -37z m-7271
-474 c25 -12 76 -52 113 -88 l67 -67 -58 -227 c-33 -125 -61 -229 -62 -230 -5
-4 -444 -136 -451 -136 -23 0 -25 348 -4 450 31 147 121 282 212 316 50 18
122 11 183 -18z m316 -420 c20 -50 34 -96 32 -103 -3 -6 -36 -20 -74 -30 -37
-10 -73 -20 -80 -22 -7 -3 2 50 25 137 41 163 39 162 97 18z m126 -508 c16
-143 7 -325 -21 -415 -38 -120 -101 -204 -185 -248 -79 -41 -224 -19 -281 44
-16 18 -14 31 61 324 43 168 81 309 84 314 8 13 314 100 323 92 3 -3 12 -53
19 -111z m-486 -97 c-13 -49 -40 -153 -60 -233 -47 -186 -42 -175 -59 -161
-32 27 -179 371 -165 385 4 4 288 94 301 95 4 1 -4 -38 -17 -86z m-6535 -3680
c-49 -174 -155 -405 -271 -592 -199 -318 -497 -620 -824 -833 -118 -77 -361
-206 -370 -197 -10 11 389 515 646 814 261 306 823 904 836 891 3 -2 -5 -39
-17 -83z" data-index="0" style="opacity: 1;"></path>
<path d="M12280 26626 c0 -65 0 -66 28 -66 15 0 185 -4 377 -10 193 -5 467
-12 610 -15 143 -3 321 -8 395 -10 74 -2 270 -7 435 -10 165 -3 338 -8 385
-10 47 -2 242 -7 434 -11 192 -4 365 -8 385 -9 20 -2 107 -4 194 -4 l158 -1
-34 -42 c-214 -264 -179 -803 76 -1177 46 -68 165 -189 232 -236 136 -97 275
-147 405 -147 123 0 186 26 270 111 126 128 181 303 175 561 -6 306 -117 576
-324 793 -125 131 -253 210 -394 242 -46 10 -274 19 -912 34 -810 20 -1011 25
-1435 36 -102 3 -291 7 -420 10 -129 3 -305 7 -390 10 -85 3 -266 8 -402 11
l-248 6 0 -66z" data-index="1"></path>
<path d="M19610 15240 c-536 -253 -994 -468 -1017 -479 l-41 -20 5 72 c8 107
-32 246 -108 374 -49 81 -192 229 -276 283 -283 186 -603 149 -669 -76 -49
-169 46 -422 230 -613 132 -136 282 -218 443 -241 96 -13 168 2 296 61 98 45
1290 605 1547 727 52 24 209 98 349 163 140 66 256 121 258 123 6 5 -28 86
-36 85 -3 0 -445 -207 -981 -459z" data-index="2"></path>
<path d="M13641 29484 c0 -11 3 -14 6 -6 3 7 2 16 -1 19 -3 4 -6 -2 -5 -13z" data-index="3"></path>
</g>
</svg>